<svg width="326" height="515" viewBox="0 0 326 515" fill="none" xmlns="http://www.w3.org/2000/svg">
<g clip-path="url(#clip0_159_1144)">
<g clip-path="url(#clip1_159_1144)">
<path d="M211.689 325.875C211.689 325.875 211.528 307.467 212.177 298.296C212.826 289.124 215.015 289.55 215.177 280.524C215.339 271.498 210.621 244.136 209.694 230.534C208.766 216.932 210.213 184.027 203.979 163.194L220.146 161.273C221.06 170.59 222.47 179.839 224.368 188.97C232.789 223.923 237.12 239.656 241.775 256.222C246.431 272.788 245.347 280.963 244.565 291.806C243.784 302.649 256.693 325.649 255.389 347.531C254.085 369.413 216.926 351.299 216.926 351.299L211.689 325.875Z" fill="white" stroke="#020202" stroke-width="1.04112" stroke-linecap="round" stroke-linejoin="round"/>
<path d="M62.8329 323.357L62.5709 326.818C62.5709 326.818 64.7291 332.068 63.9721 333.202C63.215 334.337 58.3526 332.967 58.2963 332.818C58.2399 332.67 59.629 321.978 61.6684 322.332C63.7079 322.686 62.8329 323.357 62.8329 323.357Z" fill="white" stroke="#020202" stroke-width="1.11313" stroke-miterlimit="10"/>
<path d="M66.7992 321.625C66.7992 321.625 68.3513 323.097 65.1821 323.472C64.0485 323.192 62.8574 323.254 61.7589 323.65C61.6477 325.304 61.0239 326.883 59.9743 328.167C58.9667 329.232 58.1099 326.677 58.1099 326.677L57.8561 322.143C57.8561 322.143 65.0531 318.975 66.7992 321.625Z" fill="white" stroke="#020202" stroke-width="1.11313" stroke-miterlimit="10"/>
<path d="M67.489 319.066C67.489 319.066 69.3132 320.104 67.8531 320.811C66.393 321.517 65.197 321.744 64.7346 321.317C64.2722 320.891 62.4075 322.127 60.5912 321.311C60.5912 321.311 60.8429 326.336 58.5905 327.343C56.338 328.349 55.999 324.486 55.999 324.486L57.4708 318.054C58.6143 317.106 60.0764 316.632 61.5582 316.727C63.8402 316.989 67.489 319.066 67.489 319.066Z" fill="white" stroke="#020202" stroke-width="1.11313" stroke-miterlimit="10"/>
<path d="M81.7582 390.468C81.7582 390.468 72.6253 360.128 68.9583 353.638C67.4406 350.951 64.9851 346.543 64.2401 345.498C62.684 342.907 60.2092 336.821 58.3043 333.532C57.0072 330.551 55.14 327.109 55.3548 324.214C55.5696 321.32 57.6149 312.156 59.7221 312.003C63.4458 311.729 68.5104 311.981 69.6349 312.568C70.7593 313.155 72.7421 314.085 72.8699 316.01C72.9977 317.935 70.1579 316.94 69.2358 315.857C68.0725 315.766 64.5586 316.13 62.444 315.523C62.444 315.523 62.4783 320.321 61.2776 321.986C61.2776 321.986 66.1112 326.432 65.8704 330.523L66.4925 325.413C66.4925 325.413 65.1528 321.092 67.064 320.153C69.1273 318.967 70.1935 323.835 70.7504 326.488C70.7504 326.488 74.6613 333.601 74.2845 339.001C74.4483 341.848 89.3724 363.09 99.8315 383.716C102.367 388.717 103.348 395.908 106.123 400.066C110.772 407.029 120.786 432.486 124.425 434.707C134.022 440.564 104.261 451.296 102.309 446.629C100.357 441.963 81.7582 390.468 81.7582 390.468Z" fill="white" stroke="#020202" stroke-width="1.11313" stroke-linecap="round" stroke-linejoin="round"/>
<path d="M150.65 444.044C149.055 443.445 147.963 444.972 144.563 442.3C141.164 439.628 134.843 435.729 131.734 433.709C128.624 431.689 123.824 423.772 122.467 420.711C121.11 417.651 118.808 413.423 118.226 413.619C116.016 414.363 107.931 414.608 102.363 416.033C96.7956 417.457 90.189 423.94 88.5276 424.749C88.5276 424.749 92.8988 433.414 93.4602 435.256C94.0216 437.099 96.852 436.873 97.8304 443.913C99.0067 452.355 101.351 458.08 103.211 463.272C105.071 468.464 112.102 473.441 112.489 474.316C112.489 474.316 126.287 495.778 139.587 491.746L152.717 467.059L150.65 444.044Z" fill="white" stroke="#020202" stroke-width="1.04412" stroke-miterlimit="10"/>
<path d="M63.9535 445.801C63.9535 445.801 74.1577 425.51 83.9033 421.764C90.7501 419.155 93.904 415.66 95.9743 414.561C98.0447 413.462 99.4523 415.596 99.4523 415.596C99.4523 415.596 99.6239 419.472 100.356 419.129C101.088 418.785 101.403 417.45 102.263 417.179C103.122 416.908 104.084 418.625 105.077 419.438C105.077 419.438 107.174 417.426 107.686 418.053C108.199 418.679 109.606 419.806 110.684 419.578C111.762 419.35 111.978 420.577 113.952 419.841C114.507 419.653 115.097 419.588 115.68 419.649C116.263 419.71 116.826 419.897 117.331 420.196C117.835 420.495 118.269 420.899 118.603 421.381C118.937 421.864 119.163 422.412 119.265 422.99C120.096 427.853 118.208 428.701 117.815 431.363C117.546 433.181 116.075 436.282 121.833 440.457C124.937 442.706 125.222 443.543 125.222 443.543C125.222 443.543 128.743 448.047 130.845 449.068C132.947 450.088 136.153 487.564 119.234 479.05C119.234 479.05 110.507 470.17 102.71 469.211C94.9128 468.253 85.6455 473.292 80.5871 468.351C75.5287 463.411 62.6706 457.286 63.9535 445.801Z" fill="white" stroke="#101010" stroke-width="1.00012" stroke-miterlimit="10"/>
<path d="M112.748 477.542C112.592 475.824 104.539 477.068 102.114 478.091C99.6886 479.114 93.145 483.634 85.2385 481.464C85.2385 481.464 84.6735 483.535 83.3847 483.671C83.3847 483.671 84.4084 482.237 83.478 481.44C82.5477 480.642 77.8535 482.919 71.1687 477.589C67.4881 474.609 67.1658 473.029 66.8866 471.659C62.8203 470.248 59.3767 467.457 57.154 463.771C56.1755 461.667 53.4513 461.451 53.4513 461.451C53.4513 461.451 59.2962 461.361 60.0157 461.658C60.7352 461.955 56.2014 457.133 55.7921 452.972C55.3828 448.812 56.5935 442.565 55.3752 440.179C55.9933 441.445 56.5064 442.76 56.9094 444.11C57.1677 445.374 56.1158 438.79 57.6214 433.979C59.1271 429.167 59.0803 424.64 57.7533 423.155C57.7533 423.155 60.2619 424.691 60.1416 429.838C61.6492 428.27 62.7171 426.333 63.2381 424.221C63.2381 424.221 66.3651 418.752 66.4429 416.981C66.5208 415.209 66.9632 413.8 66.0578 412.231C66.0578 412.231 68.3689 415.49 68.2751 418.253C68.1813 421.016 69.2769 413.501 72.7514 410.074C76.226 406.647 82.6516 406.425 82.591 401.827C82.5304 397.23 84.9186 419.681 78.7338 428.629C78.7338 428.629 84.9075 416.94 84.4779 414.832C84.0484 412.724 86.3574 431.57 82.3635 434.582C82.3635 434.582 86.6484 430.304 87.9874 427.725C89.3265 425.146 85.9457 434.399 83.9482 435.356C81.9506 436.313 93.3655 438.48 93.4335 429.137C93.4335 429.137 96.8247 438.761 91.5905 442.685L94.8953 441.131L93.3751 445.502L95.968 445.302L94.8837 448.595C94.8837 448.595 88.3279 449.277 87.8379 453.328C87.348 457.378 95.0989 465.784 103.379 453.664L104.591 451.002L104.118 454.062C104.118 454.062 112.881 457.21 113.221 452.421L113.171 450.565C113.171 450.565 115.697 454.878 111.913 457.846C112.706 457.441 113.384 456.843 113.886 456.108C114.388 455.373 114.697 454.523 114.786 453.637C114.786 453.637 116.295 456.731 114.826 458.678C114.826 458.678 120.229 459.696 122.218 457.972C124.208 456.248 118.36 463.444 118.36 463.444L121.029 462.898L117.3 465.417C117.93 467.407 117.959 469.54 117.381 471.546C116.352 474.39 115.535 473.973 115.342 475.915C115.149 477.857 111.42 479.644 110.38 479.564C110.384 479.563 112.868 478.909 112.748 477.542Z" fill="#020202"/>
<path d="M204.507 174.437C204.176 174.415 202.322 175.102 200.867 170.367C199.412 165.633 198.448 162.51 197.266 160.645C196.085 158.78 195.503 157.158 194.017 156.798C193.19 156.62 192.43 156.213 191.823 155.624C191.216 155.035 190.787 154.288 190.584 153.466C190.184 151.606 199.42 157.091 201.403 160.691C203.386 164.292 205.802 168.934 205.553 170.959C205.304 172.984 205.593 174.509 204.507 174.437Z" fill="white" stroke="#020202" stroke-width="1.00012" stroke-miterlimit="10"/>
<path d="M208.211 184.735C208.211 184.735 204.756 184.978 204.446 183.54C204.136 182.102 203.577 170.187 201.69 166.08C199.998 162.812 197.989 159.717 195.693 156.841C195.693 156.841 184.904 148.635 181.825 148.295C178.746 147.956 177.724 144.423 177.415 142.985C177.088 141.469 177.783 138.28 179.721 137.979C193.479 135.832 199.54 137.458 205.054 139.781C209.939 141.84 209.026 141.934 212.792 143.129C216.559 144.324 217.498 145.923 221.112 146.853C222.949 147.28 224.668 148.108 226.146 149.279C226.735 149.903 227.087 150.715 227.141 151.572C227.347 152.53 228.482 157.802 226.809 161.673C225.136 165.545 222.294 168.663 223.018 172.022C223.742 175.382 224.874 180.649 223.335 180.48C221.795 180.31 215.39 178.481 214.257 177.042C212.74 175.118 214.596 182.826 214.596 182.826C214.596 182.826 210.992 181.1 209.2 182.486C208.875 182.761 208.616 183.106 208.445 183.496C208.273 183.886 208.193 184.31 208.211 184.735Z" fill="black"/>
<mask id="mask0_159_1144" style="mask-type:luminance" maskUnits="userSpaceOnUse" x="177" y="136" width="51" height="49">
<path d="M208.211 184.735C208.211 184.735 204.756 184.978 204.446 183.54C204.136 182.102 203.577 170.187 201.69 166.08C199.998 162.812 197.989 159.717 195.693 156.841C195.693 156.841 184.904 148.635 181.825 148.295C178.746 147.956 177.724 144.423 177.415 142.985C177.088 141.469 177.783 138.28 179.721 137.979C193.479 135.832 199.54 137.458 205.054 139.781C209.939 141.84 209.026 141.934 212.792 143.129C216.559 144.324 217.498 145.923 221.112 146.853C222.949 147.28 224.668 148.108 226.146 149.279C226.735 149.903 227.087 150.715 227.141 151.572C227.347 152.53 228.482 157.802 226.809 161.673C225.136 165.545 222.294 168.663 223.018 172.022C223.742 175.382 224.874 180.649 223.335 180.48C221.795 180.31 215.39 178.481 214.257 177.042C212.74 175.118 214.596 182.826 214.596 182.826C214.596 182.826 210.992 181.1 209.2 182.486C208.875 182.761 208.616 183.106 208.445 183.496C208.273 183.886 208.193 184.31 208.211 184.735Z" fill="white"/>
</mask>
<g mask="url(#mask0_159_1144)">
<path d="M227.281 154.55C225.006 153.914 222.803 153.044 220.707 151.955C217.318 150.177 215.984 150.966 211.634 149.395C207.285 147.825 200.13 144.856 198.589 144.684C197.047 144.512 195.303 143.39 188.869 143.769C185.309 143.533 180.003 142.168 178.019 144.603C177.731 143.606 177.6 142.571 177.631 141.535C177.714 139.944 178.357 138.28 180.615 138.025C185.509 137.472 192.9 136.883 195.502 137.326C199.358 138.212 203.136 139.411 206.798 140.91C209.024 141.935 214.64 144.737 217.926 146.035C220.809 147.174 225.458 148.425 226.247 149.759C226.828 150.134 227.344 152.531 227.281 154.55Z" fill="white" stroke="#020202" stroke-width="1.00012" stroke-miterlimit="10"/>
<path d="M177.214 142.016C179.324 140.979 181.709 140.641 184.024 141.051C188.164 141.661 194.938 138.199 202.402 142.606C209.867 147.014 214.592 148.006 217.672 148.349C220.752 148.692 227.183 152.614 227.183 152.614" stroke="#020202" stroke-width="1.00012" stroke-miterlimit="10"/>
<path d="M185.877 149.623C185.877 149.623 189.297 147.567 189.724 145.64C190.151 143.714 181.432 143.397 179.426 144.218C177.42 145.039 184.273 149.386 185.877 149.623Z" fill="white" stroke="#020202" stroke-width="1.00012" stroke-miterlimit="10"/>
<path d="M217.687 166.632C218.475 167.145 222.606 166.349 223.219 161.687C223.886 157.272 220.796 156.124 220.421 155.884C219.109 155.772 217.803 156.16 216.765 156.97C215.727 157.781 215.034 158.954 214.825 160.255C214.298 165.613 216.895 166.12 217.687 166.632Z" fill="white" stroke="#020202" stroke-width="1.00012" stroke-miterlimit="10"/>
<path d="M217.492 164.388C217.492 164.388 220.516 164.945 220.901 162.724C221.163 161.214 218.869 161.324 218.869 161.324C218.869 161.324 222.007 159.899 222.526 160.322L221.574 158.619C220.36 159.313 219.206 160.107 218.124 160.993C218.124 160.993 218.425 158.962 218.941 158.747C219.458 158.532 217.615 158.56 217.193 158.535C217.7 159.383 216.623 164.013 216.129 164.147L217.492 164.388Z" fill="#020202"/>
<path d="M217.502 163.513C217.557 163.519 219.392 163.895 219.799 162.962C220.207 162.03 218.076 162.095 218.035 162.1C217.994 162.105 217.502 163.513 217.502 163.513Z" fill="white"/>
</g>
<path d="M202.516 170.205C203.504 170.251 206.988 165.457 206.46 164.357C206.334 164.127 206.155 163.93 205.937 163.783C205.719 163.637 205.469 163.545 205.208 163.516C204.947 163.486 204.683 163.52 204.438 163.614C204.193 163.708 203.974 163.86 203.8 164.057C203.212 164.814 201.885 166.871 201.666 167.21C201.447 167.549 201.572 170.165 202.516 170.205Z" fill="white" stroke="#020202" stroke-width="1.00012" stroke-miterlimit="10"/>
<path d="M211.614 167.567C211.614 167.567 202.813 163.881 201.406 163.652C199.998 163.422 199.085 160.511 200.721 160.45C202.357 160.388 202.766 161.611 203.831 161.623C206.516 162.292 209.085 163.359 211.453 164.789C212.573 165.71 213.068 167.788 211.614 167.567Z" fill="white" stroke="#020202" stroke-width="1.00012" stroke-miterlimit="10"/>
<path d="M198.836 160.71C199.595 159.726 200.712 159.085 201.944 158.925C203.542 158.814 205.125 158.538 206.667 158.102C208.279 157.754 210.288 160.282 210.281 161.157C210.275 162.032 208.179 160.397 205.893 160.597C203.608 160.798 202.394 161.691 201.288 161.736C200.183 161.78 198.977 162.04 198.836 160.71Z" fill="white" stroke="#020202" stroke-width="1.00012" stroke-miterlimit="10"/>
<path d="M208.996 132.411C209.851 132.389 209.562 135.114 209.748 137.15L209.936 139.187C209.936 139.187 209.497 138.423 208.095 139.457C207.733 139.38 207.897 137.89 208.05 135.431C208.204 132.972 207.694 132.45 208.996 132.411Z" fill="white" stroke="#020202" stroke-width="1.00012" stroke-miterlimit="10"/>
<path d="M200.055 160.739C200.055 160.739 201.21 154.617 201.852 152.635C202.495 150.653 201.923 149.51 200.626 150.619C199.33 151.727 197.552 156.765 197.983 158.322C198.415 159.878 199.436 161.693 200.055 160.739Z" fill="white" stroke="#020202" stroke-width="1.00012" stroke-miterlimit="10"/>
<path d="M204.028 155.421C204.028 155.421 203.236 156.174 200.296 155.788C198.331 155.419 196.321 155.345 194.335 155.568C193.655 155.808 191.793 155.481 191.79 154.561C191.786 153.64 194.282 152.714 196.649 153.028C199.016 153.342 201.804 152.694 202.569 153.063C203.334 153.433 204.581 155.149 204.028 155.421Z" fill="white" stroke="#020202" stroke-width="1.00012" stroke-miterlimit="10"/>
<path d="M192.416 154.765C192.555 154.735 196.099 151.396 196.283 150.438C196.33 150.153 196.297 149.86 196.189 149.593C196.08 149.325 195.9 149.092 195.668 148.92L194.384 148.809C194.384 148.809 191.032 151.468 190.834 152.824C190.637 154.181 191.16 155.035 192.416 154.765Z" fill="white" stroke="#020202" stroke-width="1.00012" stroke-miterlimit="10"/>
<path d="M203.697 173.458C204.885 173.717 206.658 171.654 208.976 171.544C209.833 171.6 210.683 171.36 211.383 170.863C211.735 170.631 216.191 168.566 212.454 153.453C209.922 141.834 211.422 137.991 208.537 139.155C205.482 140.363 210.075 151.381 210.627 158.396C211.484 161.852 211.587 168.041 210 168.804C208.818 169.318 206.804 169.315 205.356 170.063C204.297 170.591 203.188 170.805 203.065 171.459C202.87 171.974 202.952 173.299 203.697 173.458Z" fill="white"/>
<mask id="mask1_159_1144" style="mask-type:luminance" maskUnits="userSpaceOnUse" x="202" y="138" width="12" height="36">
<path d="M203.697 173.458C204.885 173.717 206.658 171.654 208.976 171.544C209.833 171.6 210.683 171.36 211.383 170.863C211.735 170.631 216.191 168.566 212.454 153.453C209.922 141.834 211.422 137.991 208.537 139.155C205.482 140.363 210.075 151.381 210.627 158.396C211.484 161.852 211.587 168.041 210 168.804C208.818 169.318 206.804 169.315 205.356 170.063C204.297 170.591 203.188 170.805 203.065 171.459C202.87 171.974 202.952 173.299 203.697 173.458Z" fill="white"/>
</mask>
<g mask="url(#mask1_159_1144)">
<path d="M211.386 170.866C211.386 170.866 211.042 168.369 210.922 167.133L211.386 170.866Z" fill="white"/>
<path d="M211.386 170.866C211.386 170.866 211.042 168.369 210.922 167.133" stroke="#020202" stroke-width="1.00012" stroke-miterlimit="10"/>
</g>
<path d="M203.697 173.458C204.885 173.717 206.658 171.654 208.976 171.544C209.833 171.6 210.683 171.36 211.383 170.863C211.735 170.631 216.191 168.566 212.454 153.453C209.922 141.834 211.422 137.991 208.537 139.155C205.482 140.363 210.075 151.381 210.627 158.396C211.484 161.852 211.587 168.041 210 168.804C208.818 169.318 206.804 169.315 205.356 170.063C204.297 170.591 203.188 170.805 203.065 171.459C202.87 171.974 202.952 173.299 203.697 173.458Z" stroke="#020202" stroke-width="1.00012" stroke-miterlimit="10"/>
<path d="M210.658 167.626C209.68 158.13 203.55 154.89 203.55 154.89C203.55 154.89 199.187 150.394 196.504 150.098C193.822 149.802 191.312 148.791 191.428 143.465L199.604 148.121C199.604 148.121 209.285 151.486 210.501 158.957C211.718 166.428 210.652 167.628 210.652 167.628" fill="black"/>
<path d="M191.451 142.84C191.143 148.699 193.822 149.803 196.503 150.098C199.185 150.394 203.55 154.89 203.55 154.89C203.55 154.89 209.68 158.13 210.656 167.627C211.633 177.123 215.668 178.294 215.668 178.294" stroke="white" stroke-width="1.00012" stroke-miterlimit="10"/>
<path d="M211.656 169.159C211.656 169.159 212.795 166.843 212.194 165.161L211.656 169.159Z" fill="white"/>
<path d="M211.656 169.159C211.656 169.159 212.795 166.843 212.194 165.161" stroke="#020202" stroke-width="1.00012" stroke-linecap="round" stroke-linejoin="round"/>
<path d="M209.552 146.77C209.552 146.77 208.38 140.466 209.329 138.989L209.552 146.77Z" fill="white"/>
<path d="M209.552 146.77C209.552 146.77 208.38 140.466 209.329 138.989" stroke="#020202" stroke-width="0.800095" stroke-linecap="round" stroke-linejoin="round"/>
<path d="M313.418 336.527C313.418 336.527 299.528 291.194 299.346 284.832C299.164 278.469 296.796 276.288 301.026 266.912C305.355 257.314 304.912 237.929 292.435 202.359C278.368 162.269 272.185 155.396 270.986 142.397L255.968 150.449C255.968 150.449 264.095 160.636 266.39 171.508C270.104 189.103 272.942 233.21 272.686 246.485C272.429 259.76 273.257 270.372 269.658 277.756C263.737 289.907 263.888 326.97 268.132 342.772C272.375 358.574 313.418 336.527 313.418 336.527Z" fill="white" stroke="#020202" stroke-width="1.02212" stroke-linecap="round" stroke-linejoin="round"/>
<path d="M279.473 299.596C280.776 300.91 280.18 296.988 277.803 294.143L279.473 299.596Z" fill="white"/>
<path d="M279.473 299.596C280.776 300.91 280.18 296.988 277.803 294.143" stroke="#020202" stroke-width="1.02212" stroke-linecap="round" stroke-linejoin="round"/>
<path d="M221.708 310.024C221.708 310.024 224.82 308.085 223.904 304.902L221.708 310.024Z" fill="white"/>
<path d="M221.708 310.024C221.708 310.024 224.82 308.085 223.904 304.902" stroke="#020202" stroke-width="1.02212" stroke-linecap="round" stroke-linejoin="round"/>
<path d="M261.94 161.182C261.94 161.182 259.103 163.94 256.476 158.953C253.848 153.966 252.981 155.554 247.364 147.396C241.747 139.238 245.9 135.243 246.952 134.003C248.004 132.763 252.419 138.857 256.257 146.221C260.095 153.584 262.49 160.973 261.94 161.182Z" fill="white" stroke="#020202" stroke-width="1.03512" stroke-miterlimit="10"/>
<path d="M267.965 175.347C267.3 175.355 263.804 172.867 262.331 172.302C260.114 169.782 262.112 163.983 258.507 158.91C254.902 153.838 251.876 151.767 244.852 142.113C237.828 132.46 234.943 130.76 233.268 129.296C231.723 127.88 230.479 126.167 229.61 124.259C228.742 122.352 228.266 120.288 228.213 118.193C228.175 116.679 228.588 115.188 229.397 113.908C230.207 112.628 231.377 111.616 232.761 111.001C232.761 111.001 239.788 108.825 248.404 114.564C257.02 120.302 255.6 120.984 257.462 122.938C259.323 124.892 264.201 128.937 266.96 129.569C270.357 130.587 273.278 132.786 275.195 135.769C276.845 138.64 277.179 148.74 275.923 152.437C274.668 156.135 280.367 163.775 280.039 165.858C279.711 167.941 277.82 167.721 276.409 166.712C274.998 165.703 270.793 157.035 268.498 158.13C267.089 158.105 273.34 164.062 273.07 166.685C272.93 168.093 266.524 170.188 265.993 171.37C266.579 172.539 268.913 173.797 267.965 175.347Z" fill="#020202"/>
<mask id="mask2_159_1144" style="mask-type:luminance" maskUnits="userSpaceOnUse" x="228" y="110" width="53" height="66">
<path d="M267.965 175.347C267.3 175.355 263.804 172.867 262.331 172.302C260.114 169.782 262.112 163.983 258.507 158.91C254.902 153.838 251.876 151.767 244.852 142.113C237.828 132.46 234.943 130.76 233.268 129.296C231.723 127.88 230.479 126.167 229.61 124.259C228.742 122.352 228.266 120.288 228.213 118.193C228.175 116.679 228.588 115.188 229.397 113.908C230.207 112.628 231.377 111.616 232.761 111.001C232.761 111.001 239.788 108.825 248.404 114.564C257.02 120.302 255.6 120.984 257.462 122.938C259.323 124.892 264.201 128.937 266.96 129.569C270.357 130.587 273.278 132.786 275.195 135.769C276.845 138.64 277.179 148.74 275.923 152.437C274.668 156.135 280.367 163.775 280.039 165.858C279.711 167.941 277.82 167.721 276.409 166.712C274.998 165.703 270.793 157.035 268.498 158.13C267.089 158.105 273.34 164.062 273.07 166.685C272.93 168.093 266.524 170.188 265.993 171.37C266.579 172.539 268.913 173.797 267.965 175.347Z" fill="white"/>
</mask>
<g mask="url(#mask2_159_1144)">
<path d="M235.284 129.72C235.284 129.72 244.819 127.461 246.075 122.468C246.075 122.468 247.357 121.141 243.72 119.579C240.083 118.018 233.944 114.579 229.229 118.472C229.229 118.472 226.155 122.265 235.284 129.72Z" fill="white"/>
<path d="M275.295 140.738C273.591 142.334 269.592 135.481 262.63 132.351C255.668 129.22 256.509 129.215 251.822 124.066C247.135 118.916 236.027 114.628 231.951 115.966C231.034 116.25 230.171 116.685 229.397 117.252C228.712 117.933 228.739 112.881 232.99 111.79C237.241 110.699 245.78 113.124 248.293 115.323C250.807 117.523 253.325 118.348 255.58 121.797C257.371 124.412 259.709 126.607 262.432 128.229C263.479 128.776 270.718 131.806 271.917 133.027C273.116 134.248 276.818 137.086 275.295 140.738Z" fill="white"/>
<path d="M275.833 139.763C275.833 139.763 266.392 130.922 260.813 128.946C255.234 126.97 253.391 122.943 250.658 120.726C247.925 118.509 244.728 113.947 237.514 113.75C230.3 113.552 229.601 114.337 228.855 115.487" stroke="black" stroke-width="1.03512" stroke-miterlimit="10"/>
<path d="M257.017 157.802C257.017 157.802 258.495 158.32 254.529 152.657C250.562 146.993 247.421 142.334 244.879 138.677C242.337 135.02 239.33 130.765 235.271 130.964" stroke="white" stroke-width="1.03512" stroke-miterlimit="10"/>
</g>
<path d="M260.794 121.985L261.824 121.795C261.824 121.795 260.979 115.124 259.777 115.44C259.013 115.591 260.794 121.985 260.794 121.985Z" fill="white" stroke="#020202" stroke-width="1.03512" stroke-miterlimit="10"/>
<path d="M269.606 155.888C270.082 156.407 272.662 155.276 269.977 147.834C267.623 141.308 263.22 128.557 262.229 122.631C262.229 122.631 262.255 119.751 260.415 120.8C259.505 121.318 262.273 132.698 263.13 136.433C264.079 140.458 265.363 144.397 266.969 148.208C268.927 152.995 269.197 155.443 269.606 155.888Z" fill="white"/>
<mask id="mask3_159_1144" style="mask-type:luminance" maskUnits="userSpaceOnUse" x="260" y="120" width="12" height="36">
<path d="M269.606 155.888C270.082 156.407 272.662 155.276 269.977 147.834C267.623 141.308 263.22 128.557 262.229 122.631C262.229 122.631 262.255 119.751 260.415 120.8C259.505 121.318 262.273 132.698 263.13 136.433C264.079 140.458 265.363 144.397 266.969 148.208C268.927 152.995 269.197 155.443 269.606 155.888Z" fill="white"/>
</mask>
<g mask="url(#mask3_159_1144)">
<path d="M269.299 155.181C269.299 155.181 271.111 154.791 269.356 150.907L269.299 155.181Z" fill="white"/>
<path d="M269.299 155.181C269.299 155.181 271.111 154.791 269.356 150.907" stroke="#020202" stroke-width="0.828098" stroke-linecap="round" stroke-linejoin="round"/>
<path d="M263.834 133.469C262.837 130.187 262.013 126.854 261.365 123.485L263.834 133.469Z" fill="white"/>
<path d="M263.834 133.469C262.837 130.187 262.013 126.854 261.365 123.485" stroke="#020202" stroke-width="0.828098" stroke-linecap="round" stroke-linejoin="round"/>
</g>
<path d="M269.606 155.888C270.082 156.407 272.662 155.276 269.977 147.834C267.623 141.308 263.22 128.557 262.229 122.631C262.229 122.631 262.255 119.751 260.415 120.8C259.505 121.318 262.273 132.698 263.13 136.433C264.079 140.458 265.363 144.397 266.969 148.208C268.927 152.995 269.197 155.443 269.606 155.888Z" stroke="#020202" stroke-width="1.03512" stroke-miterlimit="10"/>
<path d="M267.337 156.085C265.564 156.327 263.869 156.971 262.383 157.968C260.058 159.586 258.944 160.523 257.832 159.534C256.721 158.544 257.726 156.481 261.612 154.27C265.497 152.059 266.396 153.608 266.396 153.608L267.337 156.085Z" fill="white" stroke="#020202" stroke-width="1.03512" stroke-miterlimit="10"/>
<path d="M259.466 147.523C259.466 147.523 253.137 149.928 251.14 148.271C249.858 147.376 250.48 146.524 250.48 146.524C250.48 146.524 259.623 143.348 260.497 143.876C261.372 144.403 260.292 147.207 259.466 147.523Z" fill="white" stroke="#020202" stroke-width="1.03512" stroke-miterlimit="10"/>
<path d="M256.973 155.612C257.276 155.544 260.853 149.517 261.376 145.641C261.9 141.766 258.579 146.288 258.579 146.288C258.579 146.288 255.351 151.038 255.065 152.661C254.779 154.283 255.62 155.917 256.973 155.612Z" fill="white" stroke="#020202" stroke-width="1.03512" stroke-miterlimit="10"/>
<path d="M251.253 147.178C252.4 147.236 254.88 144.014 255.117 142.979C255.354 141.943 257.217 138.82 255.722 138.758C254.227 138.696 251.739 143.211 250.805 144.616C249.871 146.021 249.915 147.11 251.253 147.178Z" fill="white" stroke="#020202" stroke-width="1.03512" stroke-miterlimit="10"/>
<path d="M257.334 140.245C257.334 140.245 249.213 142.911 247.355 140.782C245.497 138.652 249.157 137.785 249.157 137.785C249.157 137.785 253.264 139.273 255.121 138.361C256.979 137.449 257.334 140.245 257.334 140.245Z" fill="white" stroke="#020202" stroke-width="1.03512" stroke-miterlimit="10"/>
<path d="M248.821 134.133C248.821 134.133 244.056 138.465 242.211 135.801C240.365 133.138 244.369 134.583 246.292 131.898C246.831 131.136 247.585 130.553 248.457 130.222C249.33 129.891 250.281 129.828 251.189 130.041C251.189 130.041 250.397 133.534 248.821 134.133Z" fill="white" stroke="#020202" stroke-width="1.03512" stroke-miterlimit="10"/>
<path d="M251.485 133.962C251.485 133.962 249.555 138.736 249.445 140.204C249.335 141.671 248.135 143.111 246.556 141.717C244.977 140.322 247.262 132.73 249.839 130.7C252.415 128.671 251.485 133.962 251.485 133.962Z" fill="white" stroke="#020202" stroke-width="1.03512" stroke-miterlimit="10"/>
<path d="M269.164 158.063C269.164 158.063 265.524 157.405 263.066 152.036C260.608 146.666 259.88 144.317 257.141 141.45C254.402 138.582 254.024 139.113 251.258 134.53C248.492 129.947 248.757 131.322 248.206 126.49C248.609 124.671 248.587 122.783 248.141 120.973" fill="#020202"/>
<path d="M269.164 158.063C269.164 158.063 265.524 157.405 263.066 152.036C260.608 146.666 259.88 144.317 257.141 141.45C254.402 138.582 254.024 139.113 251.258 134.53C248.492 129.947 248.757 131.322 248.206 126.49C248.609 124.671 248.587 122.783 248.141 120.973" stroke="white" stroke-width="1.03512" stroke-miterlimit="10"/>
<path d="M277.41 465.383C277.41 465.383 324.208 441.494 320.396 405.795C318.947 392.206 322.262 376.494 319.999 365.187C316.096 345.691 311.701 331.219 312.936 320.569C312.936 320.569 271.637 325.08 262.827 321.121C254.018 317.162 267.173 341.797 260.02 351.823C260.02 351.823 256.651 337.067 256.916 326.005C256.916 326.005 230.228 330.739 208.584 317.041C196.101 320.826 216.479 378.217 210.39 392.101C204.301 405.985 253.865 409.779 265.637 437.581L277.41 465.383Z" fill="#020202"/>
<path d="M249.238 410.523L248.788 410.049" stroke="#020202" stroke-width="0.246029" stroke-linecap="round" stroke-linejoin="round"/>
<path d="M250.081 410.801C250.081 410.801 242.304 413.647 241.329 410.261C240.354 406.874 244.085 406.595 244.085 406.595C244.085 406.595 250.007 408.044 250.6 409.197C250.687 409.332 250.744 409.486 250.765 409.646C250.786 409.806 250.771 409.968 250.721 410.122C250.672 410.275 250.588 410.416 250.478 410.533C250.367 410.651 250.232 410.742 250.081 410.801Z" fill="white" stroke="#020202" stroke-width="0.246029" stroke-linecap="round" stroke-linejoin="round"/>
<path d="M251.387 410.792C251.387 410.792 257.912 417.547 260.778 413.555C262.762 408.598 261.952 407.845 258.973 408.367C255.993 408.89 252.822 409.718 252.453 409.631C252.453 409.631 251.019 410.429 251.387 410.792Z" fill="white" stroke="#020202" stroke-width="0.246029" stroke-linecap="round" stroke-linejoin="round"/>
<path d="M252.674 410.434C252.674 410.434 257.958 410.377 259.598 409.79C261.238 409.203 260.698 412.035 259.437 412.551C259.437 412.551 258.444 413.353 255.557 411.894C252.669 410.435 252.328 410.796 252.674 410.434Z" fill="#020202" stroke="white" stroke-width="0.246029" stroke-linecap="round" stroke-linejoin="round"/>
<path d="M250.305 411.052C250.305 411.052 252.63 411.141 252.374 409.266C252.374 409.266 251.829 408.754 251.472 408.954C251.114 409.153 250.979 410.262 250.276 410.355C249.573 410.448 249.937 411.02 250.305 411.052Z" fill="white" stroke="#020202" stroke-width="0.304036" stroke-linecap="round" stroke-linejoin="round"/>
<path d="M252.374 409.266C252.941 408.406 253.218 407.389 253.166 406.361C252.766 399.431 247.339 382.023 247.003 379.272C247.003 379.272 248.591 378.631 248.414 379.686C248.236 380.741 256.058 403.175 253.965 408.77C253.321 410.496 252.707 410.099 252.355 410.099C252.003 410.099 252.374 409.266 252.374 409.266Z" fill="white" stroke="#020202" stroke-width="0.246029" stroke-linecap="round" stroke-linejoin="round"/>
<path d="M247.254 378.077C247.761 377.651 248.94 377.994 248.951 378.226C248.961 378.459 248.467 379.125 248.467 379.125L247.041 379.091C247.041 379.091 247.035 378.261 247.254 378.077Z" fill="white" stroke="#020202" stroke-width="0.246029" stroke-linecap="round" stroke-linejoin="round"/>
<path d="M248.689 379.538C248.689 379.538 246.554 380.1 246.816 379.429C246.909 379.196 247.085 379.008 247.31 378.9C247.464 378.82 247.633 378.774 247.806 378.763C247.979 378.752 248.152 378.778 248.315 378.837C248.676 379.014 248.838 379.498 248.689 379.538Z" fill="white" stroke="#020202" stroke-width="0.246029" stroke-linecap="round" stroke-linejoin="round"/>
<path d="M250.019 410.429C250.118 409.899 250.123 409.357 250.035 408.825C249.862 408.378 250.429 408.168 250.952 408.502L251.473 408.837" fill="white"/>
<path d="M250.019 410.429C250.118 409.899 250.123 409.357 250.035 408.825C249.862 408.378 250.429 408.168 250.952 408.502L251.473 408.837" stroke="#020202" stroke-width="0.246029" stroke-linecap="round" stroke-linejoin="round"/>
<path d="M250.026 408.943C250.026 408.943 240.924 391.549 240.251 388.404C239.785 386.227 240.628 382.815 240.482 382.196C240.336 381.578 239.525 381.868 239.525 381.868C238.963 383.67 238.596 385.526 238.43 387.406C238.51 390.454 245.806 407.402 248.588 408.757C249.655 409.46 250.112 409.292 250.112 409.292L250.026 408.943Z" fill="white" stroke="#020202" stroke-width="0.246029" stroke-linecap="round" stroke-linejoin="round"/>
<path d="M239.054 381.949C239.049 381.64 239.096 381.333 239.194 381.041C239.335 380.796 240.418 380.945 240.716 381.175C241.015 381.404 240.517 382.112 240.281 382.179C240.044 382.245 239.051 382.116 239.054 381.949Z" fill="white" stroke="#020202" stroke-width="0.246029" stroke-linecap="round" stroke-linejoin="round"/>
<path d="M238.665 382.447C238.665 382.447 238.594 382.927 239.468 382.86C240.342 382.792 240.648 382.935 240.67 382.358C240.693 381.782 239.995 381.806 239.056 381.948C238.416 382.307 238.65 382.614 238.65 382.614" fill="white"/>
<path d="M238.665 382.447C238.665 382.447 238.594 382.927 239.468 382.86C240.342 382.792 240.648 382.935 240.67 382.358C240.693 381.782 239.995 381.806 239.056 381.948C238.416 382.307 238.65 382.614 238.65 382.614" stroke="#020202" stroke-width="0.246029" stroke-linecap="round" stroke-linejoin="round"/>
<path d="M249.008 410.341C248.882 410.29 244.549 409.213 243.713 409.819C242.878 410.425 243.534 408.893 245.041 408.88C246.479 408.872 247.879 409.341 249.022 410.214" fill="#020202"/>
<path d="M249.008 410.341C248.882 410.29 244.549 409.213 243.713 409.819C242.878 410.425 243.534 408.893 245.041 408.88C246.479 408.872 247.879 409.341 249.022 410.214" stroke="white" stroke-width="0.246029" stroke-linecap="round" stroke-linejoin="round"/>
<path d="M162.379 502.58C172.553 505.51 181.722 504.319 198.733 507.719C215.744 511.12 246.108 492.694 246.108 492.694C246.108 492.694 279.227 473.432 283.017 468.567C286.807 463.702 275.092 443.039 275.092 443.039C275.092 443.039 272.381 434.344 271.936 431.81C270.201 425.063 250.138 409.265 245.875 393.003C245.184 390.658 236.345 383.869 235.364 383.038C233.364 381.284 222.382 385.265 218.188 386.32C203.907 386.001 192.59 394.297 192.59 394.297C189.162 399.969 184.934 405.118 180.039 409.586C172.614 416.043 173.073 415.09 164.822 419.308C156.571 423.526 151.307 423.353 145.055 425.2C138.804 427.047 125.98 438.391 125.98 438.391C125.98 438.391 125.328 479.432 119.841 477.915C114.355 476.399 122.173 480.996 133.82 491.818C145.199 502.402 162.379 502.58 162.379 502.58Z" fill="white" stroke="#020202" stroke-width="1.20014" stroke-miterlimit="10"/>
<path d="M109.415 269.698C110.447 269.896 111.501 269.958 112.55 269.883C113.002 269.636 113.909 273.406 115.009 273.312C117.085 273.136 115.514 268.094 113.566 266.961C111.618 265.829 109.874 264.003 108.984 264.492C108.094 264.982 108.407 268.532 109.415 269.698Z" fill="white" stroke="#020202" stroke-width="1.10413" stroke-miterlimit="10"/>
<path d="M105.79 265.173C105.284 262.616 112.746 262.539 115.15 263.782C117.555 265.026 117.768 268.335 116.914 268.598C116.059 268.861 114.469 266.674 114.469 266.674C113.308 267.038 112.051 266.928 110.97 266.369C112.221 268.717 112.636 274.621 113.517 275.601C114.398 276.581 115.783 280.074 116.978 284.686C118.173 289.297 117.384 291.485 117.533 294.769C117.683 298.053 116.795 297.356 123.877 309.118C126.981 314.273 150.059 352.38 153.834 359.106C156.381 361.974 159.791 366.462 160.953 370.368C164.704 382.966 166.519 397.596 169.785 410.142C173.966 426.209 174.576 428.013 174.576 428.013L152.913 434.65C152.913 434.65 147.984 431.933 145.687 422.246C135.653 399.623 141.541 381.97 136 373.325C122.918 352.925 110.987 313.758 108.03 308.599C101.723 297.588 100.374 294.155 97.1756 290.443C92.5453 285.068 93.5748 279.605 94.7393 270.802C94.7393 270.802 95.4373 267.535 97.942 266.914C98.0602 266.936 98.1697 266.992 98.2578 267.074C98.3459 267.156 98.4091 267.261 98.4402 267.377C98.4402 267.377 100.292 264.668 101.418 267.097C102.39 262.668 105.79 265.173 105.79 265.173Z" fill="white"/>
<mask id="mask4_159_1144" style="mask-type:luminance" maskUnits="userSpaceOnUse" x="93" y="262" width="82" height="173">
<path d="M105.79 265.173C105.284 262.616 112.746 262.539 115.15 263.782C117.555 265.026 117.768 268.335 116.914 268.598C116.059 268.861 114.469 266.674 114.469 266.674C113.308 267.038 112.051 266.928 110.97 266.369C112.221 268.717 112.636 274.621 113.517 275.601C114.398 276.581 115.783 280.074 116.978 284.686C118.173 289.297 117.384 291.485 117.533 294.769C117.683 298.053 116.795 297.356 123.877 309.118C126.981 314.273 150.059 352.38 153.834 359.106C156.381 361.974 159.791 366.462 160.953 370.368C164.704 382.966 166.519 397.596 169.785 410.142C173.966 426.209 174.576 428.013 174.576 428.013L152.913 434.65C152.913 434.65 147.984 431.933 145.687 422.246C135.653 399.623 141.541 381.97 136 373.325C122.918 352.925 110.987 313.758 108.03 308.599C101.723 297.588 100.374 294.155 97.1756 290.443C92.5453 285.068 93.5748 279.605 94.7393 270.802C94.7393 270.802 95.4373 267.535 97.942 266.914C98.0602 266.936 98.1697 266.992 98.2578 267.074C98.3459 267.156 98.4091 267.261 98.4402 267.377C98.4402 267.377 100.292 264.668 101.418 267.097C102.39 262.668 105.79 265.173 105.79 265.173Z" fill="white"/>
</mask>
<g mask="url(#mask4_159_1144)">
<path d="M99.5745 287.891C99.304 287.318 99.0364 286.676 99.6521 286.35C100.268 286.024 100.973 285.518 100.836 286.23C100.698 286.943 99.6949 287.101 100.096 287.959C100.497 288.817 99.5745 287.891 99.5745 287.891Z" fill="#020202"/>
<path d="M103.541 285.109C103.313 284.212 103.293 283.024 104.216 282.831C105.14 282.638 105.006 283.542 104.637 284.241C104.267 284.94 103.788 286.076 103.541 285.109Z" fill="#020202"/>
<path d="M107.879 281.645C108.007 280.934 108.737 280.706 108.907 281.338C109.078 281.97 109.065 282.538 108.898 282.618C108.731 282.698 107.654 282.899 107.879 281.645Z" fill="#020202"/>
<path d="M98.4409 267.38C97.452 268.546 98.3961 278.533 98.8221 279.731C99.2481 280.93 97.9074 282.537 97.9074 282.537" stroke="#020202" stroke-width="1.10413" stroke-linecap="round" stroke-linejoin="round"/>
<path d="M105.714 264.587C104.038 263.428 102.263 263.709 101.58 265.129C101.132 266.064 101.931 272.308 102.118 274.878C102.305 277.447 102.685 279.028 102.342 279.189" stroke="#020202" stroke-width="1.10413" stroke-linecap="round" stroke-linejoin="round"/>
<path d="M107.003 277.989C107.003 277.989 107.393 271.983 106.349 268.544C105.305 265.106 106.174 263.277 107.595 263.289" stroke="#020202" stroke-width="1.10413" stroke-linecap="round" stroke-linejoin="round"/>
</g>
<path d="M105.79 265.173C105.284 262.616 112.746 262.539 115.15 263.782C117.555 265.026 117.768 268.335 116.914 268.598C116.059 268.861 114.469 266.674 114.469 266.674C113.308 267.038 112.051 266.928 110.97 266.369C112.221 268.717 112.636 274.621 113.517 275.601C114.398 276.581 115.783 280.074 116.978 284.686C118.173 289.297 117.384 291.485 117.533 294.769C117.683 298.053 116.795 297.356 123.877 309.118C126.981 314.273 150.059 352.38 153.834 359.106C156.381 361.974 159.791 366.462 160.953 370.368C164.704 382.966 166.519 397.596 169.785 410.142C173.966 426.209 174.576 428.013 174.576 428.013L152.913 434.65C152.913 434.65 147.984 431.933 145.687 422.246C135.653 399.623 141.541 381.97 136 373.325C122.918 352.925 110.987 313.758 108.03 308.599C101.723 297.588 100.374 294.155 97.1756 290.443C92.5453 285.068 93.5748 279.605 94.7393 270.802C94.7393 270.802 95.4373 267.535 97.942 266.914C98.0602 266.936 98.1697 266.992 98.2578 267.074C98.3459 267.156 98.4091 267.261 98.4402 267.377C98.4402 267.377 100.292 264.668 101.418 267.097C102.39 262.668 105.79 265.173 105.79 265.173Z" stroke="#020202" stroke-width="1.10413" stroke-linecap="round" stroke-linejoin="round"/>
<path d="M140.603 454.819C141.193 453.115 143.178 453.261 143.302 448.683C143.426 444.105 141.834 435.576 142.294 431.678C142.754 427.779 140.153 412.957 138.582 409.782C137.012 406.608 137.519 401.84 135.851 400.407C134.183 398.974 145.559 400.134 150.484 396.565C155.41 392.997 165.922 393.535 167.705 392.73C167.705 392.73 172.243 398.67 173.363 400.373C174.482 402.077 175.083 402.98 176.229 411.729C177.285 419.569 179.792 427.144 183.623 434.065C186.587 439.089 190.591 443.318 191.041 444.225" fill="white"/>
<path d="M140.603 454.819C141.193 453.115 143.178 453.261 143.302 448.683C143.426 444.105 141.834 435.576 142.294 431.678C142.754 427.779 140.153 412.957 138.582 409.782C137.012 406.608 137.519 401.84 135.851 400.407C134.183 398.974 145.559 400.134 150.484 396.565C155.41 392.997 165.922 393.535 167.705 392.73C167.705 392.73 172.243 398.67 173.363 400.373C174.482 402.077 175.083 402.98 176.229 411.729C177.285 419.569 179.792 427.144 183.623 434.065C186.587 439.089 190.591 443.318 191.041 444.225" stroke="#020202" stroke-width="1.10413" stroke-miterlimit="10"/>
<path d="M161.309 454.042C161.309 454.042 179.243 452.098 185.161 444.166" stroke="#020202" stroke-width="1.20014" stroke-miterlimit="10"/>
<path d="M207.375 396.542C208.843 397.202 225.025 390.647 233.311 396.431" stroke="#020202" stroke-width="1.20014" stroke-miterlimit="10"/>
<path d="M270.024 472.202C270.024 472.202 278.119 461.001 269.356 446.473L270.024 472.202Z" fill="white"/>
<path d="M270.024 472.202C270.024 472.202 278.119 461.001 269.356 446.473" stroke="#020202" stroke-width="1.20014" stroke-miterlimit="10"/>
<path d="M132.174 468.958C132.174 468.958 131.145 455.145 134.095 451.566L132.174 468.958Z" fill="white"/>
<path d="M132.174 468.958C132.174 468.958 131.145 455.145 134.095 451.566" stroke="#020202" stroke-width="1.20014" stroke-miterlimit="10"/>
<path d="M181.951 430.678C181.951 430.678 192.679 430.527 197.362 425.769L181.951 430.678Z" fill="white"/>
<path d="M181.951 430.678C181.951 430.678 192.679 430.527 197.362 425.769" stroke="#020202" stroke-width="1.10413" stroke-miterlimit="10"/>
</g>
<g clip-path="url(#clip2_159_1144)">
<path fill-rule="evenodd" clip-rule="evenodd" d="M164.185 32.1897C163.522 34.2754 163.216 36.458 163.279 38.6456C163.331 40.7867 163.435 42.9217 163.56 45.0549C163.808 48.178 164.464 51.2551 165.51 54.2082C166.543 57.4199 167.988 60.484 169.81 63.3235C169.88 63.436 169.963 63.5441 170.021 63.6611C171.389 66.0458 173.231 68.1249 175.434 69.7699C176.439 70.6114 177.645 71.1773 178.935 71.412C179.867 71.5761 180.776 71.8901 181.702 72.0784C185.555 72.8652 189.559 72.403 193.131 70.7591C196.762 69.1417 200.12 66.9689 203.083 64.3187C207.252 60.6791 210.675 56.2651 213.164 51.3216C214.984 47.7997 216.24 44.0139 216.885 40.1025C218.162 31.7353 216.291 24.2739 211.083 17.8556C208.878 15.1048 206.175 12.7931 203.116 11.0413C200.175 9.26464 196.89 8.1346 193.479 7.72639C189.965 7.38515 186.422 7.93323 183.176 9.32018C179.441 10.8602 176.113 13.2434 173.451 16.2832C170.596 19.4732 168.184 23.034 166.281 26.8692C165.886 27.6837 165.504 28.5084 165.172 29.355C164.808 30.2856 164.51 31.2439 164.185 32.1897Z" fill="white"/>
<path fill-rule="evenodd" clip-rule="evenodd" d="M173.451 76.3093C173.781 76.7469 174.256 77.0537 174.79 77.1757C176.75 77.7443 178.716 78.2918 180.786 78.8776C180.81 78.624 180.806 78.3684 180.772 78.1159C180.567 77.3278 180.336 76.5486 180.098 75.7737C179.651 74.4168 179.333 73.0208 179.149 71.6042C179.125 71.4052 179.079 71.2093 179.014 71.0198C178.984 70.9683 178.944 70.9236 178.896 70.8884C178.848 70.8532 178.794 70.8284 178.736 70.8154C178.678 70.8025 178.618 70.8017 178.559 70.8132C178.501 70.8247 178.446 70.8482 178.397 70.8821C178.283 70.9817 178.182 71.0949 178.096 71.219C177.109 72.6843 175.926 74.007 174.579 75.15C174.217 75.484 173.887 75.8529 173.451 76.3093Z" fill="white"/>
<path fill-rule="evenodd" clip-rule="evenodd" d="M176.715 78.5782C177.933 78.9647 179.27 79.3992 180.466 79.7622C180.944 79.9087 181.468 80.3085 181.91 79.795C182.304 79.3362 182.065 78.7607 181.918 78.2541C181.705 77.5245 181.44 76.8104 181.211 76.0843C180.86 74.9764 180.517 73.8646 180.182 72.7491C180.14 72.5447 180.115 72.3375 180.105 72.1291C180.352 72.0944 180.603 72.0897 180.852 72.1152C183.053 72.5405 185.294 72.7215 187.535 72.6547C188.137 72.6361 188.734 72.5423 189.313 72.3755C190.195 72.1573 191.069 71.9083 191.934 71.6286C195.87 70.2871 199.52 68.2203 202.694 65.5351C206.477 62.4571 209.723 58.7725 212.3 54.6315C213.567 52.5797 214.654 50.4212 215.546 48.1806C216.579 45.6895 217.336 43.093 217.805 40.4374C219.254 31.6457 217.284 23.8184 211.713 17.065C209.382 14.2081 206.53 11.8188 203.309 10.0238C200.424 8.34216 197.239 7.23959 193.932 6.7778C189.874 6.29795 185.763 6.9469 182.05 8.65321C178.545 10.1939 175.413 12.4705 172.866 15.3285C169.842 18.6565 167.3 22.3922 165.314 26.4265C164.296 28.5275 163.498 30.7278 162.932 32.9925C162.744 33.8256 162.626 34.673 162.58 35.5258C162.469 37.0072 162.414 38.4916 162.343 39.9745C162.332 41.3685 162.41 42.7617 162.576 44.1458C162.952 48.5774 164.034 52.9203 165.782 57.01C166.349 58.3674 167.003 59.6863 167.742 60.9584C168.722 62.6471 169.748 64.3172 170.878 65.8949C172.35 67.926 174.304 69.5591 176.563 70.6472C176.907 70.8173 177.241 71.0075 177.528 71.1602C177.538 71.3664 177.504 71.5724 177.427 71.764C177.351 71.9556 177.233 72.1284 177.083 72.2703C176.266 73.0725 175.586 73.5165 174.762 74.3103C174.381 74.6761 173.966 75.0085 173.613 75.4017C173.438 75.5446 173.302 75.7298 173.218 75.9398C173.135 76.1498 173.106 76.3777 173.134 76.602C173.163 76.8263 173.248 77.0396 173.382 77.2217C173.516 77.4039 173.695 77.5488 173.9 77.643C174.226 77.8473 175.424 78.1346 175.776 78.2959C175.923 78.3638 175.706 78.7736 175.623 78.857C174.346 81.6802 173.412 83.1429 172.368 85.3262C171.048 87.9208 169.921 90.6095 168.997 93.3702C167.927 96.8241 165.205 105.979 165.109 106.067C164.345 108.772 163.238 111.368 161.813 113.791C159.807 118.073 158.228 122.543 157.099 127.135C156.254 130.621 155.776 134.185 155.672 137.77C155.516 140.966 154.656 143.159 155.11 146.33C155.299 147.66 155.007 150.853 155.35 152.15C155.529 153.231 156.078 154.217 156.903 154.938C157.003 154.987 157.109 155.022 157.219 155.042C157.192 154.56 157.09 154.085 156.917 153.634C155.671 150.323 156.661 146.27 156.562 142.748C156.445 138.741 156.692 134.733 157.299 130.771C157.821 127.62 158.655 124.529 159.788 121.543C160.939 118.358 162.308 115.257 163.886 112.261C164.82 110.576 167.923 100.328 168.53 97.8208C169.134 94.9091 170.047 92.0703 171.255 89.3528C172.206 86.8824 173.331 84.4828 174.622 82.1719C175.424 80.8814 175.845 79.9953 176.715 78.5782ZM164.295 31.8237C164.617 30.8903 164.91 29.9453 165.27 29.0269C165.596 28.1935 165.975 27.3802 166.366 26.5781C168.253 22.7934 170.648 19.2835 173.483 16.1454C176.135 13.1445 179.447 10.8 183.159 9.29621C186.4 7.93544 189.93 7.40563 193.428 7.75485C196.832 8.16927 200.11 9.29563 203.049 11.0607C206.102 12.7977 208.804 15.0891 211.016 17.8174C213.54 20.8317 215.373 24.3627 216.385 28.1618C217.397 31.9608 217.564 35.9356 216.875 39.8062C216.243 43.6672 215.003 47.4035 213.2 50.8754C210.73 55.7566 207.329 60.1074 203.188 63.6825C200.236 66.2936 196.895 68.4285 193.285 70.01C189.716 71.6239 185.728 72.0675 181.892 71.2774C180.965 71.0876 180.058 70.7744 179.13 70.6096C177.844 70.3755 176.64 69.8147 175.633 68.981C173.437 67.3523 171.596 65.2933 170.223 62.9298C170.16 62.8123 170.082 62.7057 170.011 62.5951C168.187 59.7891 166.736 56.758 165.693 53.578C164.642 50.6617 163.978 47.6197 163.719 44.5303C163.584 42.4211 163.478 40.3137 163.419 38.1988C163.346 36.0397 163.643 33.8831 164.295 31.8237ZM173.805 76.3813C174.194 75.9928 174.488 75.6704 174.811 75.3842C176.11 74.4238 177.274 73.2924 178.27 72.0205C178.347 71.9128 178.437 71.8152 178.538 71.73C178.583 71.7011 178.633 71.6814 178.685 71.672C178.738 71.6627 178.792 71.6639 178.843 71.6757C178.895 71.6874 178.945 71.7094 178.988 71.7403C179.031 71.7712 179.068 71.8105 179.096 71.8559C179.24 72.1379 179.366 72.4282 179.475 72.7254C179.658 73.9655 179.959 75.185 180.376 76.3672C180.598 77.0444 180.91 77.4988 181.103 78.1868C181.157 78.3748 180.648 78.7798 180.652 79.0405C178.777 78.5084 176.796 77.6653 175.023 77.1485C174.542 77.0369 174.113 76.765 173.806 76.3774L173.805 76.3813Z" fill="black"/>
</g>
<path fill-rule="evenodd" clip-rule="evenodd" d="M65.051 153.273C65.5428 155.539 65.6269 157.875 65.2996 160.171C64.9909 162.419 64.6307 164.654 64.2366 166.887C63.5907 170.159 62.5008 173.328 60.9972 176.305C59.4607 179.59 57.4942 182.656 55.1494 185.422C55.0548 185.533 54.9529 185.638 54.8709 185.756C53.0485 188.135 50.7607 190.119 48.1468 191.586C46.917 192.363 45.5133 192.821 44.0622 192.92C43.006 192.988 41.9625 193.218 40.9075 193.314C36.5505 193.717 32.1738 192.788 28.3558 190.651C24.5359 188.566 21.059 185.906 18.0467 182.765C13.8714 178.52 10.58 173.488 8.36316 167.962C6.75657 164.07 5.80268 159.94 5.53986 155.738C5.22782 151.505 5.88056 147.256 7.44892 143.311C9.01729 139.366 11.4604 135.829 14.5941 132.966C17.3987 130.295 20.6715 128.163 24.2487 126.678C27.7479 125.13 31.5246 124.308 35.3506 124.261C39.278 124.289 43.1416 125.257 46.6174 127.086C50.5494 129.089 53.9693 131.968 56.6138 135.501C59.4002 139.15 61.6659 143.169 63.3461 147.443C63.6893 148.344 64.0182 149.255 64.2856 150.18C64.5817 151.2 64.7995 152.241 65.051 153.273Z" fill="white"/>
<path fill-rule="evenodd" clip-rule="evenodd" d="M48.9586 199.666C48.5649 200.046 48.0563 200.285 47.5125 200.345C45.4773 200.691 43.437 201.018 41.2876 201.369C41.2918 201.131 41.3251 200.894 41.3869 200.664C41.6816 199.953 42.0028 199.252 42.3278 198.555C42.9266 197.346 43.403 196.08 43.7499 194.776C43.7973 194.593 43.8652 194.415 43.9524 194.246C44.0286 194.154 44.1376 194.095 44.2562 194.082C44.3749 194.069 44.494 194.102 44.5886 194.175C44.6926 194.277 44.7832 194.391 44.8584 194.515C45.6968 195.979 46.7392 197.317 47.9542 198.487C48.2797 198.831 48.571 199.208 48.9586 199.666Z" fill="white"/>
<path fill-rule="evenodd" clip-rule="evenodd" d="M46.7649 201.604C45.3631 201.876 42.8962 202.271 41.5216 202.521C40.9778 202.627 40.3421 202.989 39.909 202.39C39.5207 201.854 39.8553 201.27 40.0776 200.747C40.3987 199.994 40.7763 199.263 41.1147 198.515C41.6333 197.374 42.1437 196.229 42.646 195.078C42.7155 194.865 42.7682 194.647 42.8035 194.426C42.5301 194.36 42.2501 194.326 41.9689 194.325C39.4658 194.525 36.9485 194.46 34.459 194.131C33.7917 194.042 33.1375 193.874 32.5104 193.629C31.5527 193.297 30.6072 192.931 29.6738 192.531C25.4708 190.665 21.6463 188.043 18.3905 184.796C14.5515 181.11 11.357 176.807 8.93976 172.065C7.76379 169.739 6.79906 167.312 6.0572 164.814C5.19393 162.046 4.64783 159.189 4.42939 156.298C4.02857 151.804 4.67555 147.278 6.31948 143.076C7.96342 138.874 10.5595 135.111 13.9037 132.081C16.8578 129.286 20.3088 127.067 24.0786 125.541C27.5064 124.075 31.1792 123.266 34.9057 123.157C39.4685 123.109 43.9625 124.27 47.9304 126.524C51.6307 128.545 54.8581 131.332 57.398 134.697C60.3716 138.569 62.7761 142.846 64.5386 147.398C65.4289 149.747 66.0657 152.185 66.4379 154.669C66.5514 155.578 66.5852 156.496 66.5388 157.411C66.4917 159.003 66.3839 160.592 66.2923 162.18C66.1438 163.669 65.897 165.146 65.5536 166.602C64.6209 171.3 62.9157 175.809 60.5074 179.948C59.7171 181.331 58.8356 182.66 57.8687 183.925C56.582 185.613 55.2477 187.275 53.8056 188.828C51.9066 190.841 49.5426 192.356 46.9211 193.241C46.5189 193.383 46.1248 193.547 45.7836 193.678C45.7285 193.827 45.7232 193.989 45.7685 194.141C45.8138 194.293 45.9073 194.426 46.0348 194.52C46.8544 195.469 47.6792 196.414 48.5092 197.355C48.8912 197.79 49.3156 198.191 49.6626 198.65C49.8397 198.821 49.9689 199.034 50.0373 199.27C50.1056 199.506 50.1108 199.756 50.0521 199.994C49.9935 200.232 49.8732 200.451 49.7033 200.629C49.5334 200.806 49.3199 200.935 49.0841 201.004C48.6808 201.164 48.267 201.295 47.8454 201.398C47.6739 201.453 47.8687 201.916 47.9519 202.014C49.0516 205.171 50.1037 206.622 51.0166 209.069C52.1879 211.981 53.1352 214.978 53.85 218.033C54.6457 221.839 56.6273 231.913 56.7193 232.019C57.4889 236.266 58.2355 237.429 59.5041 240.633C61.1378 245.062 62.2777 249.657 62.9032 254.336C63.4445 258.145 63.568 262.002 63.2717 265.838C63.0907 269.335 62.5684 272.806 61.7124 276.201C61.4093 277.638 61.021 279.057 60.5494 280.448C60.2177 281.591 59.4928 282.58 58.5027 283.241C58.3851 283.281 58.2625 283.305 58.1385 283.312C58.2237 282.799 58.3917 282.304 58.6359 281.846C60.2779 278.448 61.3185 274.791 61.7113 271.038C62.2998 266.781 62.4838 262.477 62.2609 258.185C62.0408 254.761 61.467 251.368 60.5486 248.061C59.735 244.88 58.6703 241.768 57.3646 238.756C56.5216 236.85 54.2372 225.57 53.8484 222.826C53.5476 219.444 52.2431 215.961 51.2486 212.721C50.5698 210.354 49.691 208.049 48.6216 205.831C47.8826 204.382 47.5695 203.212 46.7649 201.604ZM65.051 153.273C64.7995 152.241 64.5818 151.2 64.2856 150.18C64.0171 149.254 63.6884 148.344 63.3461 147.443C61.666 143.169 59.4002 139.15 56.6138 135.501C53.9693 131.968 50.5495 129.089 46.6175 127.086C43.1416 125.257 39.278 124.289 35.3506 124.261C31.525 124.308 27.7487 125.13 24.2498 126.678C20.6726 128.163 17.3997 130.294 14.5949 132.965C11.4609 135.828 9.01757 139.366 7.44906 143.31C5.88056 147.255 5.22778 151.504 5.5399 155.738C5.80405 159.94 6.75928 164.07 8.36713 167.961C10.5828 173.489 13.8735 178.522 18.0485 182.769C21.0608 185.91 24.5377 188.569 28.3576 190.655C32.174 192.79 36.5481 193.717 40.9026 193.315C41.9577 193.219 43.0023 192.99 44.0574 192.921C45.5085 192.822 46.9122 192.363 48.1419 191.587C50.7558 190.12 53.0436 188.136 54.866 185.757C54.9451 185.639 55.051 185.534 55.1445 185.423C57.4894 182.657 59.4559 179.591 60.9923 176.306C62.4959 173.329 63.5858 170.16 64.2317 166.888C64.6249 164.655 64.9861 162.42 65.2948 160.172C65.6238 157.876 65.5413 155.54 65.051 153.273ZM48.9625 199.666C48.5737 199.206 48.2833 198.829 47.9561 198.487C46.7411 197.316 45.6987 195.979 44.8603 194.515C44.7851 194.39 44.6945 194.276 44.5905 194.175C44.4959 194.102 44.3768 194.069 44.2581 194.082C44.1395 194.095 44.0305 194.154 43.9543 194.246C43.8671 194.414 43.7992 194.592 43.7518 194.776C43.4046 196.08 42.9279 197.346 42.3287 198.555C42.0027 199.252 41.6836 199.953 41.3879 200.664C41.3261 200.894 41.2927 201.131 41.2886 201.369C43.438 201.018 45.4782 200.691 47.5134 200.345C48.0584 200.285 48.5681 200.046 48.9625 199.666Z" fill="black"/>
</g>
<defs>
<clipPath id="clip0_159_1144">
<rect width="326" height="515" fill="white"/>
</clipPath>
<clipPath id="clip1_159_1144">
<rect width="388.342" height="441.712" fill="white" transform="translate(-22 102.065)"/>
</clipPath>
<clipPath id="clip2_159_1144">
<rect width="97.208" height="162.165" fill="white" transform="translate(128.3)"/>
</clipPath>
</defs>
</svg>
